PathFileType	4	(X/Y/Z)	E:\Qualisys_Data\Carbon_Farble_Plate\Data\Amateur_Runner\S14\T1\S14T1V12_c3d.trc
DataRate	CameraRate	NumFrames	NumMarkers	Units	OrigDataRate	OrigDataStartFrame	OrigNumFrames
200.000000	200.000000	4	39	mm	200.000000	42	338
Frame#	Time	LSHO			RSHO			LICST			RICST			LASIS			LHEEL			RASIS			LTROC			RTROC			SACR			LTH1			LSK4			LTH2			LTH3			RHM5			LSK2			LTH4			RTH1			LTOE			RTH2			RTH3			RTH4			LLEP			RLEP			LSK1			LSK3			RSK1			LHM5			RSK2			LFT1			RSK3			RSK4			LLME			RLME			RTOE			RHEEL			RFT1			RFT2			LFT2			
		X1	Y1	Z1	X2	Y2	Z2	X3	Y3	Z3	X4	Y4	Z4	X5	Y5	Z5	X6	Y6	Z6	X7	Y7	Z7	X8	Y8	Z8	X9	Y9	Z9	X10	Y10	Z10	X11	Y11	Z11	X12	Y12	Z12	X13	Y13	Z13	X14	Y14	Z14	X15	Y15	Z15	X16	Y16	Z16	X17	Y17	Z17	X18	Y18	Z18	X19	Y19	Z19	X20	Y20	Z20	X21	Y21	Z21	X22	Y22	Z22	X23	Y23	Z23	X24	Y24	Z24	X25	Y25	Z25	X26	Y26	Z26	X27	Y27	Z27	X28	Y28	Z28	X29	Y29	Z29	X30	Y30	Z30	X31	Y31	Z31	X32	Y32	Z32	X33	Y33	Z33	X34	Y34	Z34	X35	Y35	Z35	X36	Y36	Z36	X37	Y37	Z37	X38	Y38	Z38	X39	Y39	Z39	

43	0.21	-1714.3125	1393.609619140625	-454.3681335449219	-1679.830444335938	1376.004272460938	-148.8243103027344	-1770.114868164062	946.6548461914062	-448.2526550292969	-1733.8095703125	947.5573120117188	-169.1326446533203	-1725.525024414062	897.0267333984375	-425.1608276367188	-2058.932861328125	503.465576171875	-339.5838012695312	-1706.642456054688	911.9366455078124	-193.5814208984375	-1865.754150390625	816.4978637695312	-448.5296936035156	-1846.820434570312	856.3862915039062	-138.9095764160156	-1888.575317382812	954.939208984375	-304.6166076660156	-1706.960083007812	628.116943359375	-487.989501953125	-1874.044555664062	500.1463623046875	-436.0122375488281	-1773.527587890625	600.8209838867188	-456.0394592285156	-1660.621704101562	538.8107299804688	-478.8332214355469	-1748.942626953125	74.19587707519531	-173.2689666748047	-1779.916381835938	507.9949340820312	-463.4696044921875	-1732.909301757812	515.3709716796875	-450.1981811523438	-1662.829467773438	639.8629760742188	-137.6459655761719	-2078.91748046875	249.6244659423828	-385.5226745605469	-1739.067993164062	626.0927734375	-135.0267944335938	-1640.0107421875	546.1636352539062	-170.9788665771484	-1720.281982421875	526.984130859375	-156.6563873291016	-1682.5830078125	472.8399658203125	-472.5181274414062	-1686.511962890625	462.7964172363281	-170.0258178710938	-1772.36181640625	428.0162963867188	-462.2651672363281	-1870.157958984375	419.9702758789062	-437.1251831054688	-1696.241821289062	339.2197875976562	-173.1100158691406	-2095.13671875	322.1594543457031	-439.1156005859375	-1774.557250976562	371.7245483398438	-161.9555969238281	-2085.68896484375	490.7732543945312	-316.1589050292969	-1745.397705078125	249.0924530029297	-192.2645874023438	-1813.535766601562	286.00390625	-178.8123168945312	-2036.913940429688	453.6525573730469	-407.2521667480469	-1867.33251953125	123.4717254638672	-207.8970031738281	-1674.011474609375	72.39393615722656	-233.8087463378906	-1930.25390625	104.4832534790039	-264.34521484375	-1918.486938476562	71.53239440917969	-289.6651000976562	-1933.667724609375	82.44727325439453	-234.1795501708984	-2088.64990234375	504.2027282714844	-366.7557983398438
44	0.215	-1701.309936523438	1394.184692382812	-454.4601745605469	-1662.304077148438	1376.871337890625	-149.6897735595703	-1756.275756835938	946.9424438476562	-448.2449035644531	-1719.063110351562	948.3279418945312	-168.3968811035156	-1711.432861328125	898.2254028320312	-425.3683776855469	-2039.357788085938	502.3913879394531	-343.3695373535156	-1692.406372070312	911.35888671875	-190.9479827880859	-1850.40478515625	817.103271484375	-448.4646606445312	-1832.916137695312	857.589599609375	-137.7139282226562	-1874.803100585938	956.1025390625	-304.02685546875	-1687.023559570312	631.8883666992188	-486.8031616210938	-1849.59619140625	500.2216796875	-436.1061096191406	-1752.832885742188	601.71044921875	-454.7316589355469	-1638.317749023438	543.8671875	-477.5332946777344	-1749.152954101562	73.8433609008789	-173.3823852539062	-1755.275268554688	509.3176574707031	-462.5804748535156	-1709.523315429688	517.6528930664062	-448.8651428222656	-1653.333129882812	637.3355712890625	-137.2789001464844	-2048.443603515625	246.0610961914062	-385.7150573730469	-1731.752685546875	623.5135498046875	-131.888427734375	-1632.035766601562	543.610107421875	-170.1176300048828	-1712.732299804688	525.9336547851562	-156.2275390625	-1657.087158203125	476.4519958496094	-472.8108520507812	-1679.967651367188	460.8938903808594	-169.4140167236328	-1746.82080078125	430.4320983886719	-461.9025573730469	-1843.95703125	419.8326721191406	-436.1797180175781	-1692.03076171875	337.994384765625	-171.6428375244141	-2059.788818359375	317.0686950683594	-440.5411682128906	-1770.661987304688	371.8277893066406	-161.6913757324219	-2060.8330078125	488.6690673828125	-314.635498046875	-1742.9345703125	248.3228149414062	-191.6702880859375	-1811.53466796875	286.0805053710938	-179.7659912109375	-2011.857299804688	450.7969055175781	-407.7024841308594	-1871.073852539062	123.1915740966797	-209.3820495605469	-1674.169311523438	71.79340362548828	-233.8633728027344	-1929.964233398438	105.4921340942383	-264.1234436035156	-1918.279541015625	72.41325378417969	-289.3942565917969	-1933.250366210938	83.11235809326172	-234.0224151611328	-2067.296630859375	501.4847412109375	-369.6133422851562
45	0.22	-1688.945190429688	1394.860595703125	-454.9100341796875	-1645.01611328125	1377.752563476562	-150.700927734375	-1741.52734375	948.1222534179688	-447.5660095214844	-1703.344360351562	949.1087036132812	-168.467041015625	-1698.697265625	898.9373168945312	-425.8319091796875	-2015.366943359375	497.7169189453125	-343.7856140136719	-1677.528930664062	911.7615966796876	-191.9880676269531	-1835.499389648438	817.7523803710938	-448.4656677246094	-1819.388061523438	859.1631469726562	-137.4109191894531	-1859.736450195312	957.0834350585938	-303.0861206054688	-1667.550659179688	635.62890625	-486.5881042480469	-1825.975463867188	500.6855773925781	-436.0269470214844	-1733.06396484375	603.26025390625	-454.931884765625	-1616.242553710938	548.7244262695312	-476.7438659667969	-1748.909912109375	73.66557312011719	-172.9822235107422	-1731.378295898438	511.4893493652344	-462.1786193847656	-1686.063842773438	520.4061279296875	-447.6163940429688	-1643.578247070312	636.0887451171875	-137.0290374755859	-2016.624755859375	241.0384216308594	-385.4375305175781	-1720.157470703125	621.2999267578125	-132.5180206298828	-1624.146362304688	541.3838500976562	-170.8209381103516	-1705.197265625	525.3005981445312	-155.4725646972656	-1633.113647460938	480.7586975097656	-471.739013671875	-1673.726806640625	459.7605285644531	-169.1892852783203	-1718.684692382812	430.0157775878906	-459.5613708496094	-1818.025268554688	420.2014465332031	-435.7633361816406	-1688.673950195312	336.3868103027344	-172.1247863769531	-2036.857055664062	313.2179260253906	-440.6848449707031	-1766.385986328125	371.8309936523438	-162.1670074462891	-2038.061889648438	482.2808837890625	-315.2399291992188	-1739.896362304688	248.0874481201172	-191.1541137695312	-1808.474487304688	286.5103149414062	-179.2284393310547	-1986.723999023438	446.9658508300781	-407.550048828125	-1865.281494140625	125.7113494873047	-207.8098297119141	-1673.982299804688	71.43460845947266	-233.9086608886719	-1929.838623046875	106.6390914916992	-263.8617858886719	-1918.226440429688	73.73461151123047	-289.5990295410156	-1933.285888671875	84.87628173828125	-234.5006713867188	-2042.720092773438	495.6808776855469	-369.7224426269531
46	0.225	-1676.039794921875	1396.082763671875	-454.9461364746094	-1627.936889648438	1379.240966796875	-152.0601348876953	-1726.874633789062	949.1834716796876	-447.3243408203125	-1687.598510742188	950.3787841796876	-167.3288269042969	-1682.737182617188	900.6124267578125	-424.6991271972656	-1995.002563476562	493.5687561035156	-343.7575073242188	-1662.653686523438	912.2216796875	-190.9898681640625	-1820.51025390625	819.5601196289062	-448.692626953125	-1805.262329101562	860.7249755859375	-137.2825622558594	-1844.084716796875	958.377197265625	-302.3922424316406	-1648.332153320312	639.4078369140625	-485.46142578125	-1801.228881835938	499.80615234375	-435.2836608886719	-1713.100952148438	605.8732299804688	-453.5421447753906	-1594.253051757812	554.1849975585938	-475.4051208496094	-1748.776489257812	73.72486877441406	-172.9336242675781	-1707.633666992188	513.5693359375	-461.0783081054688	-1661.947875976562	523.421875	-445.4306335449219	-1633.288940429688	635.26025390625	-136.8468780517578	-1985.573852539062	236.0679626464844	-385.2445983886719	-1710.465087890625	626.13330078125	-133.3512268066406	-1616.139404296875	540.09716796875	-169.8300476074219	-1697.740844726562	525.392578125	-154.78662109375	-1608.861694335938	485.4703979492188	-470.5045471191406	-1668.253173828125	458.3163146972656	-168.7013702392578	-1693.062622070312	432.1614074707031	-458.1974182128906	-1793.131958007812	420.5352783203125	-435.7108459472656	-1685.4130859375	335.5573120117188	-171.1498413085938	-2006.215087890625	306.18359375	-440.0575256347656	-1762.403686523438	372.039306640625	-161.512939453125	-2015.054931640625	476.8372192382812	-316.7024841308594	-1738.555053710938	248.2676544189453	-191.8845672607422	-1805.391845703125	287.6236877441406	-178.9490203857422	-1961.887573242188	442.9136657714844	-407.92236328125	-1865.384033203125	126.8591156005859	-208.1178283691406	-1674.196899414062	71.19529724121094	-234.1617126464844	-1927.633666992188	107.5520401000977	-262.1469116210938	-1917.92822265625	75.15692138671875	-289.7962036132812	-1932.875244140625	85.85263061523438	-234.1369476318359	-2020.251708984375	490.2311706542969	-370.8055725097656
